REM DIRINDEX 1\2,1\3
REM DIRNAME cjc039,folder01,folder02
TITLE ""
FILE "3341-3360.mp3" MP3
  TRACK 01 AUDIO
    TITLE "0:"
    INDEX 01 00:00:00
  TRACK 02 AUDIO
    TITLE "2:cjc039_5681"
    INDEX 01 00:00:27
  TRACK 03 AUDIO
    TITLE "0:"
    INDEX 01 00:01:44
  TRACK 04 AUDIO
    TITLE "3:cjc039_5682"
    INDEX 01 00:02:20
  TRACK 05 AUDIO
    TITLE "0:"
    INDEX 01 00:06:00
  TRACK 06 AUDIO
    TITLE "2:cjc039_5683"
    INDEX 01 00:07:45
  TRACK 07 AUDIO
    TITLE "0:"
    INDEX 01 00:09:02
  TRACK 08 AUDIO
    TITLE "3:cjc039_5684"
    INDEX 01 00:09:55
  TRACK 09 AUDIO
    TITLE "0:"
    INDEX 01 00:13:65
  TRACK 10 AUDIO
    TITLE "2:cjc039_5685"
    INDEX 01 00:15:42
  TRACK 11 AUDIO
    TITLE "0:"
    INDEX 01 00:16:53
  TRACK 12 AUDIO
    TITLE "3:cjc039_5686"
    INDEX 01 00:17:33
  TRACK 13 AUDIO
    TITLE "0:"
    INDEX 01 00:20:71
  TRACK 14 AUDIO
    TITLE "2:cjc039_5687"
    INDEX 01 00:22:42
  TRACK 15 AUDIO
    TITLE "0:"
    INDEX 01 00:23:65
  TRACK 16 AUDIO
    TITLE "3:cjc039_5688"
    INDEX 01 00:24:37
  TRACK 17 AUDIO
    TITLE "0:"
    INDEX 01 00:28:49
  TRACK 18 AUDIO
    TITLE "2:cjc039_5689"
    INDEX 01 00:30:22
  TRACK 19 AUDIO
    TITLE "0:"
    INDEX 01 00:31:41
  TRACK 20 AUDIO
    TITLE "3:cjc039_5690"
    INDEX 01 00:32:19
  TRACK 21 AUDIO
    TITLE "0:"
    INDEX 01 00:34:65
  TRACK 22 AUDIO
    TITLE "2:cjc039_5691"
    INDEX 01 00:36:36
  TRACK 23 AUDIO
    TITLE "0:"
    INDEX 01 00:37:71
  TRACK 24 AUDIO
    TITLE "3:cjc039_5692"
    INDEX 01 00:38:51
  TRACK 25 AUDIO
    TITLE "0:"
    INDEX 01 00:43:27
  TRACK 26 AUDIO
    TITLE "2:cjc039_5693"
    INDEX 01 00:45:04
  TRACK 27 AUDIO
    TITLE "0:"
    INDEX 01 00:46:06
  TRACK 28 AUDIO
    TITLE "3:cjc039_5694"
    INDEX 01 00:46:60
  TRACK 29 AUDIO
    TITLE "0:"
    INDEX 01 00:49:59
  TRACK 30 AUDIO
    TITLE "2:cjc039_5695"
    INDEX 01 00:51:30
  TRACK 31 AUDIO
    TITLE "0:"
    INDEX 01 00:52:65
  TRACK 32 AUDIO
    TITLE "3:cjc039_5696"
    INDEX 01 00:53:39
  TRACK 33 AUDIO
    TITLE "0:"
    INDEX 01 00:57:68
  TRACK 34 AUDIO
    TITLE "2:cjc039_5697"
    INDEX 01 00:59:41
  TRACK 35 AUDIO
    TITLE "0:"
    INDEX 01 01:00:53
  TRACK 36 AUDIO
    TITLE "3:cjc039_5698"
    INDEX 01 01:01:29
  TRACK 37 AUDIO
    TITLE "0:"
    INDEX 01 01:04:60
  TRACK 38 AUDIO
    TITLE "2:cjc039_5699"
    INDEX 01 01:06:34
  TRACK 39 AUDIO
    TITLE "0:"
    INDEX 01 01:07:70
  TRACK 40 AUDIO
    TITLE "3:cjc039_5700"
    INDEX 01 01:08:42
  TRACK 41 AUDIO
    TITLE "0:"
    INDEX 01 01:12:28
  TRACK 42 AUDIO
    TITLE "2:cjc039_5701"
    INDEX 01 01:14:08
  TRACK 43 AUDIO
    TITLE "0:"
    INDEX 01 01:15:11
  TRACK 44 AUDIO
    TITLE "3:cjc039_5702"
    INDEX 01 01:15:62
  TRACK 45 AUDIO
    TITLE "0:"
    INDEX 01 01:19:17
  TRACK 46 AUDIO
    TITLE "2:cjc039_5703"
    INDEX 01 01:20:69
  TRACK 47 AUDIO
    TITLE "0:"
    INDEX 01 01:22:23
  TRACK 48 AUDIO
    TITLE "3:cjc039_5704"
    INDEX 01 01:23:01
  TRACK 49 AUDIO
    TITLE "0:"
    INDEX 01 01:26:44
  TRACK 50 AUDIO
    TITLE "2:cjc039_5705"
    INDEX 01 01:28:18
  TRACK 51 AUDIO
    TITLE "0:"
    INDEX 01 01:29:37
  TRACK 52 AUDIO
    TITLE "3:cjc039_5706"
    INDEX 01 01:30:09
  TRACK 53 AUDIO
    TITLE "0:"
    INDEX 01 01:33:54
  TRACK 54 AUDIO
    TITLE "2:cjc039_5707"
    INDEX 01 01:35:29
  TRACK 55 AUDIO
    TITLE "0:"
    INDEX 01 01:36:43
  TRACK 56 AUDIO
    TITLE "3:cjc039_5708"
    INDEX 01 01:37:24
  TRACK 57 AUDIO
    TITLE "0:"
    INDEX 01 01:40:50
  TRACK 58 AUDIO
    TITLE "2:cjc039_5709"
    INDEX 01 01:42:28
  TRACK 59 AUDIO
    TITLE "0:"
    INDEX 01 01:43:35
  TRACK 60 AUDIO
    TITLE "3:cjc039_5710"
    INDEX 01 01:44:07
  TRACK 61 AUDIO
    TITLE "0:"
    INDEX 01 01:47:40
  TRACK 62 AUDIO
    TITLE "2:cjc039_5711"
    INDEX 01 01:49:18
  TRACK 63 AUDIO
    TITLE "0:"
    INDEX 01 01:50:45
  TRACK 64 AUDIO
    TITLE "3:cjc039_5712"
    INDEX 01 01:51:23
  TRACK 65 AUDIO
    TITLE "0:"
    INDEX 01 01:55:54
  TRACK 66 AUDIO
    TITLE "2:cjc039_5713"
    INDEX 01 01:57:31
  TRACK 67 AUDIO
    TITLE "0:"
    INDEX 01 01:58:27
  TRACK 68 AUDIO
    TITLE "3:cjc039_5714"
    INDEX 01 01:59:06
  TRACK 69 AUDIO
    TITLE "0:"
    INDEX 01 02:02:20
  TRACK 70 AUDIO
    TITLE "2:cjc039_5715"
    INDEX 01 02:03:69
  TRACK 71 AUDIO
    TITLE "0:"
    INDEX 01 02:05:34
  TRACK 72 AUDIO
    TITLE "3:cjc039_5716"
    INDEX 01 02:06:16
  TRACK 73 AUDIO
    TITLE "0:"
    INDEX 01 02:10:24
  TRACK 74 AUDIO
    TITLE "2:cjc039_5717"
    INDEX 01 02:12:03
  TRACK 75 AUDIO
    TITLE "0:"
    INDEX 01 02:13:30
  TRACK 76 AUDIO
    TITLE "3:cjc039_5718"
    INDEX 01 02:14:08
  TRACK 77 AUDIO
    TITLE "0:"
    INDEX 01 02:18:12
  TRACK 78 AUDIO
    TITLE "2:cjc039_5719"
    INDEX 01 02:19:66
  TRACK 79 AUDIO
    TITLE "0:"
    INDEX 01 02:21:35
  TRACK 80 AUDIO
    TITLE "3:cjc039_5720"
    INDEX 01 02:22:09
  TRACK 81 AUDIO
    TITLE "0:"
    INDEX 01 02:26:35
